<svg width="600" height="600" xmlns="http://www.w3.org/2000/svg"><defs><linearGradient y2="Infinity" y1="Infinity" x2="Infinity" x1="Infinity" id="SVGID_1_"><stop stop-color="#F9AA4C" offset="0"/><stop stop-color="#F7941F" offset="1"/></linearGradient></defs><path fill="none" id="canvas_background" d="M-1-1h602v602H-1z"/><circle id="svg_1" r="256" fill="url(#SVGID_1_)" cy="300.008" cx="294.979"/><path id="symbol_2_" fill="#FFF" d="M406.76 272.256c4.725-29.85-19.322-45.896-52.204-56.601l10.666-40.437-26.042-6.134-10.383 39.371c-6.848-1.613-13.878-3.134-20.867-4.642l10.459-39.629-26.028-6.135-10.673 40.422c-5.666-1.22-11.23-2.425-16.63-3.694l.03-.127-35.915-8.475-6.927 26.29s19.322 4.185 18.913 4.445c10.548 2.488 12.453 9.086 12.134 14.315l-12.15 46.066c.729.174 1.669.426 2.707.819-.868-.202-1.794-.426-2.751-.645l-17.031 64.531c-1.29 3.029-4.562 7.571-11.933 5.847.258.357-18.93-4.465-18.93-4.465l-12.93 28.175 33.892 7.986c6.304 1.492 12.484 3.056 18.566 4.528l-10.778 40.9 26.013 6.133 10.673-40.464a1032.764 1032.764 0 0020.755 5.088L268.759 436l26.042 6.133 10.778-40.822c44.406 7.944 77.8 4.74 91.856-33.221 11.326-30.566-.564-48.198-23.928-59.695 17.016-3.709 29.834-14.288 33.253-36.139zm-59.503 78.86c-8.046 30.565-62.5 14.041-80.152 9.898l14.302-54.183c17.652 4.165 74.262 12.409 65.85 44.285zm8.056-79.301c-7.343 27.803-52.665 13.677-67.366 10.214l12.966-49.142c14.702 3.462 62.047 9.925 54.4 38.928z"/></svg>