<svg version="1.1" id="Слой_1" xmlns="http://www.w3.org/2000/svg" x="0" y="0" viewBox="0 0 64 64" xml:space="preserve"><g id="row_3"><g id="payment_x5F_way"><linearGradient id="SVGID_1_" gradientUnits="userSpaceOnUse" x1="-25.22" y1="54.68" x2="113.407" y2="-.267"><stop offset="0" stop-color="#ffc601"/><stop offset="1" stop-color="#00bf91"/></linearGradient><path d="M58 55H6c-2.8 0-5-2.2-5-5V14c0-2.8 2.2-5 5-5h52c2.8 0 5 2.2 5 5v36c0 2.8-2.2 5-5 5z" fill="url(#SVGID_1_)"/><path fill="#e0f7fa" d="M13 28h46v8H13z"/><path d="M13.5 31.6l3.1-3.1m-.9 7l7-7m6.1 0l-7 7m13.1-7l-7 7m13.1-7l-7 7m13.1-7l-7 7m13.2-7l-7 7m12.2-6.1l-6.1 6.1" fill="none" stroke="#1565c0" stroke-miterlimit="10"/><path d="M16.6 31.5l3-3m6.1 0l-3 3m9.2-3l-3 3m9.1-3l-3 3m9.1-3l-3 3m9.1-3l-3 3m9.1-3l-3 3" stroke="#fbc02d" fill="none" stroke-miterlimit="10"/><path d="M58.5 32.4l-3.1 3.1m-39.8-3l-2.1 2.1m8.2-2.1l-3 3m6.2 0l3-3m3.1 3l3-3m3.1 3l3-3m3.1 3l3-3m3.1 3l3-3" stroke="#c62828" fill="none" stroke-miterlimit="10"/><path fill="#263238" d="M1 14h62v10H1z"/><path id="svg_10_1_" d="M59.4 46.1c0 3-2.4 5.4-5.4 5.4-1.4 0-2.7-.5-3.6-1.4-.2-.2-1.3.2-1.8-.1-1.6-.9-3.3-2.7-3.3-3.9 0-1.3 1.7-3.2 3.1-4.2.3-.2 1.7.5 1.8.4 1-1 2.3-1.6 3.8-1.6 3 0 5.4 2.4 5.4 5.4z" fill="#ffc601"/><path id="svg_11_1_" d="M54.1 40.3c-1.5 0-2.8.6-3.9 1.5-.9-.7-2-1.1-3.2-1.1-2.9 0-5.3 2.4-5.3 5.3s2.4 5.3 5.3 5.3c1.2 0 2.3-.4 3.2-1.1 1 .9 2.4 1.5 3.9 1.5 3.2 0 5.8-2.6 5.8-5.8 0-3-2.6-5.6-5.8-5.6zm0 10.6c-1.2 0-2.3-.4-3.1-1.1l-.1-.1h-2v-.9h2.7c.1-.2.3-.5.4-.7h-3.8v-.9h4.1c.1-.2.1-.5.1-.7h-4.6v-.9h4.6c0-.2-.1-.5-.1-.7h-4.1V44H52c-.1-.3-.2-.5-.4-.7h-2.7v-.9h1.8c.1 0 .1.1.2.1.9-.8 2-1.3 3.3-1.3 2.7 0 4.9 2.2 4.9 4.9-.1 2.7-2.3 4.8-5 4.8z" fill="#303030"/><circle id="svg_12_1_" cx="47.1" cy="46.1" r="4.2" fill="#f43735"/></g></g><linearGradient id="SVGID_2_" gradientUnits="userSpaceOnUse" x1="9.857" y1="1053.398" x2="13.202" y2="1082.469" gradientTransform="translate(0 -1014)"><stop offset="0" stop-color="#00ead0"/><stop offset=".089" stop-color="#00d5d0"/><stop offset=".465" stop-color="#f43735"/><stop offset=".853" stop-color="#002cd4"/><stop offset="1" stop-color="#0013d4"/></linearGradient><g id="Слой_2_1_"><path d="M4.2 40.8h1v1.5h-1zm0 2.7s-1 4.6 2.4 4.5c3.5-.1 2.8-3.6 2.8-3.6l.1-3.5H8.2l.1 3.6s.3 2.3-1.5 2.3S5.2 45 5.2 45v-1.5h-1zm6.4 4.4h1.1v-4s2.3-1.4 2.3 0v4h1.2v-3.6s-.5-3.7-3.4-1l-.1-1h-1.1v5.6zm6-5.5h1.1V48h-1.1zm2.1 0v1h.8v3.3s-.1 1.9 2.5 1v-.8s-1.7.9-1.7-.5v-2.8H22v-1.1h-1.7v-1.1h-.8l-.1 1h-.7zm14.6 0h1.1l1.5 4.2 1.4-4.2h1.3l-2.3 6.3s-.9 2-2.9 1.3l.5-.9s.7.7 1.7-1.1l-2.3-5.6zm-9.4.6v-.6l-1-.1v7.6h1v-2.4s.1.5 1.7.4 2.2-1.5 2.2-2.7c0-1.3-.9-4-3.9-2.2zm2.7 2.5c-.2 3.1-2.7.7-2.7.7v-2.4c.8-.3 3-1.4 2.7 1.7zm6.2-1c-.1-3.7-4.2-1.5-4.2-1.5l.5.8c2.7-1.3 2.7.6 2.7.6s-4 0-3.2 2.4c.8 2.3 3.3.5 3.3.5l.1.6h.9c-.1-.1 0 .4-.1-3.4zm-1.1 1.7s-1.1 1.7-2.1.3 2.1-1.3 2.1-1.3v1z"/><linearGradient id="SVGID_3_" gradientUnits="userSpaceOnUse" x1="16.494" y1="1054.379" x2="20.645" y2="1057.589" gradientTransform="translate(0 -1014)"><stop offset="0" stop-color="#00ead0"/><stop offset=".089" stop-color="#00d5d0"/><stop offset=".54" stop-color="#006dd2"/><stop offset=".853" stop-color="#002cd4"/><stop offset="1" stop-color="#0013d4"/></linearGradient><path d="M15.6 40.3c.9 1.3 2.1 1.6 2.1.5s-1.1 0-1.1 0" fill="url(#SVGID_3_)"/></g></svg>