<svg version="1.1" id="Слой_1" xmlns="http://www.w3.org/2000/svg" x="0" y="0" viewBox="0 0 64 64" xml:space="preserve"><g id="row_3"><g id="payment_x5F_way"><linearGradient id="SVGID_1_" gradientUnits="userSpaceOnUse" x1="45.395" y1="1.959" x2="20.146" y2="58.585"><stop offset="0" stop-color="#fff"/><stop offset=".108" stop-color="#f3f4f4"/><stop offset=".495" stop-color="#cdd1d1"/><stop offset=".806" stop-color="#b6bcbc"/><stop offset="1" stop-color="#adb4b4"/></linearGradient><path d="M58 55H6c-2.8 0-5-2.2-5-5V14c0-2.8 2.2-5 5-5h52c2.8 0 5 2.2 5 5v36c0 2.8-2.2 5-5 5z" fill="url(#SVGID_1_)"/><path fill="#e0f7fa" d="M13 28h46v8H13z"/><path d="M13.5 31.6l3.1-3.1m-.9 7l7-7m6.1 0l-7 7m13.1-7l-7 7m13.1-7l-7 7m13.1-7l-7 7m13.2-7l-7 7m12.2-6.1l-6.1 6.1" fill="none" stroke="#1565c0" stroke-miterlimit="10"/><path d="M16.6 31.5l3-3m6.1 0l-3 3m9.2-3l-3 3m9.1-3l-3 3m9.1-3l-3 3m9.1-3l-3 3m9.1-3l-3 3" stroke="#fbc02d" fill="none" stroke-miterlimit="10"/><path d="M58.5 32.4l-3.1 3.1m-39.8-3l-2.1 2.1m8.2-2.1l-3 3m6.2 0l3-3m3.1 3l3-3m3.1 3l3-3m3.1 3l3-3m3.1 3l3-3" stroke="#c62828" fill="none" stroke-miterlimit="10"/><path fill="#263238" d="M1 14h62v10H1z"/><path d="M54 51.5h-4c-3 0-5.5-2.5-5.5-5.5h0c0-3 2.5-5.5 5.5-5.5h4c3 0 5.5 2.5 5.5 5.5h0c0 3-2.5 5.5-5.5 5.5z" fill="none" stroke="#e0e0e0" stroke-miterlimit="10"/><path d="M50 42.5c.7 0 1.4.2 2 .6-.9.6-1.5 1.7-1.5 2.9h3c0 1.2-.6 2.2-1.5 2.9-.6.4-1.3.6-2 .6-1.9 0-3.5-1.6-3.5-3.5s1.6-3.5 3.5-3.5z" fill="red"/><path d="M50.5 46c0-1.2.6-2.2 1.5-2.9.6-.4 1.3-.6 2-.6 1.9 0 3.5 1.6 3.5 3.5s-1.6 3.5-3.5 3.5c-.7 0-1.4-.2-2-.6.9-.6 1.5-1.7 1.5-2.9h-3z" fill="#ffce00"/></g></g><g id="Layer_2"><g id="logos"><g id="_6"><path fill="#ffdd2d" d="M2 40.8h38.6v9H2z"/><path d="M6.3 44.6H5v-.8h3.6v.8H7.3v2.2h-1v-2.2zm5.9-.8v3h-.9v-1.7l-1.6 1.8h-.8v-3h.9v1.8l1.6-1.8.8-.1zm1.6 3h-.9v-3h.9v1.1h1.5v-1.1h.9v3h-.9v-1.1h-1.5v1.1zm3.1 0v-3h.9v.8h.9c.2 0 .5 0 .7.1.4.1.7.6.7 1 0 .5-.3.9-.8 1-.2 0-.4.1-.6.1h-1.8zm.9-.7H19c.1-.1.2-.2.2-.3 0-.2-.1-.3-.2-.3h-1.2v.6zm3.6.7h-.9v-3h.9v1.1h.3l1.1-1.1H24l-1.5 1.4 1.5 1.6h-1.2l-1.1-1.1h-.3v1.1z"/><path d="M27.9 45.3c0 .9-.7 1.6-2 1.6-1.2 0-2-.7-2-1.6s.7-1.6 2-1.6 2 .7 2 1.6zm-1 0c0-.5-.4-.9-1-.9s-1 .4-1 .9.4.9 1 .9 1-.4 1-.9zm5.9 0c0 .9-.7 1.3-1.8 1.3v.4h-1v-.3c-1.2 0-1.8-.5-1.8-1.3 0-.9.7-1.3 1.8-1.4v-.3h.9v.3c1.2 0 1.9.5 1.9 1.3zm-2.8-.7c-.6 0-.9.3-.9.7s.3.7.9.7v-1.4zm1.8.7c0-.4-.3-.7-.9-.7V46c.7 0 .9-.3.9-.7zm5.8 0c0 .9-.7 1.3-1.8 1.3v.4h-.9v-.3c-1.2 0-1.8-.5-1.8-1.3 0-.9.7-1.3 1.8-1.4v-.3h.9v.3c1.1 0 1.8.5 1.8 1.3zm-2.7-.7c-.6 0-.9.3-.9.7s.3.7.9.7v-1.4zm1.8.7c0-.4-.3-.7-.9-.7V46c.6 0 .9-.3.9-.7z"/></g></g></g></svg>