<svg version="1.1" id="Слой_1" xmlns="http://www.w3.org/2000/svg" x="0" y="0" viewBox="0 0 64 64" xml:space="preserve"><g id="row_3"><g id="payment_x5F_way"><path d="M58 55H6c-2.8 0-5-2.2-5-5V14c0-2.8 2.2-5 5-5h52c2.8 0 5 2.2 5 5v36c0 2.8-2.2 5-5 5z" fill="#5bc8a3"/><path fill="#e0f7fa" d="M13 28h46v8H13z"/><path d="M13.5 31.6l3.1-3.1m-.9 7l7-7m6.1 0l-7 7m13.1-7l-7 7m13.1-7l-7 7m13.1-7l-7 7m13.2-7l-7 7m12.2-6.1l-6.1 6.1" fill="none" stroke="#1565c0" stroke-miterlimit="10"/><path d="M16.6 31.5l3-3m6.1 0l-3 3m9.2-3l-3 3m9.1-3l-3 3m9.1-3l-3 3m9.1-3l-3 3m9.1-3l-3 3" stroke="#fbc02d" fill="none" stroke-miterlimit="10"/><path d="M58.5 32.4l-3.1 3.1m-39.8-3l-2.1 2.1m8.2-2.1l-3 3m6.2 0l3-3m3.1 3l3-3m3.1 3l3-3m3.1 3l3-3m3.1 3l3-3" stroke="#c62828" fill="none" stroke-miterlimit="10"/><path fill="#263238" d="M1 14h62v10H1z"/><path d="M54 51.5h-4c-3 0-5.5-2.5-5.5-5.5h0c0-3 2.5-5.5 5.5-5.5h4c3 0 5.5 2.5 5.5 5.5h0c0 3-2.5 5.5-5.5 5.5z" fill="none" stroke="#e0e0e0" stroke-miterlimit="10"/><path d="M50 42.5c.7 0 1.4.2 2 .6-.9.6-1.5 1.7-1.5 2.9h3c0 1.2-.6 2.2-1.5 2.9-.6.4-1.3.6-2 .6-1.9 0-3.5-1.6-3.5-3.5s1.6-3.5 3.5-3.5z" fill="red"/><path d="M50.5 46c0-1.2.6-2.2 1.5-2.9.6-.4 1.3-.6 2-.6 1.9 0 3.5 1.6 3.5 3.5s-1.6 3.5-3.5 3.5c-.7 0-1.4-.2-2-.6.9-.6 1.5-1.7 1.5-2.9h-3z" fill="#ffce00"/></g></g><path d="M23.8 44.1h-1.1l-.8 1.4h-.4v-3.1h-1.1V48h1.1v-1.5h.4L23 48h1.2l-1.4-2 1-1.9zm8.2 1.8c-.2-.1-.5-.3-.7-.3l-.2-.1H31c-.1-.1-.3-.1-.3-.3v-.1l.1-.1c.1-.1.2-.1.3-.1.2 0 .4 0 .6.2l.6-.7-.2-.2c-.1-.1-.3-.1-.5-.2h-.8c-.2 0-.5.1-.6.3l-.3.3c-.1.1-.1.3-.1.4 0 .3 0 .6.2.8s.5.4.8.5h.1c.4.1.5.2.6.3v.1c0 .2-.2.3-.4.3h-.3c-.1 0-.2-.1-.3-.1-.1-.1-.3-.2-.4-.4-.1.1-.7.7-.6.7.3.4.7.6 1.1.7h.4c.4 0 .7-.1 1-.3.2-.1.3-.3.4-.6.1-.2.1-.3.1-.5s-.1-.3-.1-.4c-.2 0-.3-.1-.4-.2zm3.5 0c-.2-.1-.5-.3-.7-.3l-.2-.1h-.1c-.2-.1-.3-.1-.3-.3v-.1l.1-.1c.1-.1.2-.1.3-.1.2 0 .4 0 .6.2l.6-.7c-.1-.1-.2-.1-.2-.2-.1-.1-.3-.1-.5-.2s-.5-.1-.7 0c-.2 0-.5.1-.6.3l-.3.3c-.1.1-.1.3-.1.4 0 .3 0 .6.2.8s.5.4.8.5h.1c.4.1.5.2.6.3v.1c0 .2-.2.3-.4.3h-.3c-.1 0-.2-.1-.3-.1-.1-.1-.3-.2-.4-.4-.1.1-.7.7-.6.7.3.4.7.6 1.1.7h.4c.4 0 .7-.1 1-.3.2-.1.3-.3.4-.6v-.3c0-.2-.1-.3-.1-.4l-.4-.4zm-8.1-1.8v.4c-.4-.3-.8-.5-1.2-.5-.3 0-.5 0-.7.1s-.4.2-.6.4c-.4.4-.5.9-.5 1.4s.2 1.1.5 1.5c.2.2.4.3.6.4.2.1.5.1.7.1.4 0 .8-.2 1.1-.4v.5h1.1v-3.9h-1zm0 1.9c0 .3-.1.6-.3.9-.1.1-.2.2-.3.2-.1.1-.3.1-.4.1s-.3 0-.4-.1-.2-.1-.3-.3c-.2-.2-.3-.6-.3-.9 0-.3.1-.6.3-.8.1-.1.2-.2.3-.2.1-.1.3-.1.4-.1s.3 0 .4.1.2.1.3.3c.2.2.3.5.3.8zm12.2-1.9v.4c-.3-.3-.7-.5-1.1-.5-.3 0-.5 0-.7.1s-.4.2-.6.4c-.4.4-.5.9-.5 1.4s.2 1.1.5 1.5c.2.2.4.3.6.4.2.1.5.1.7.1.4 0 .8-.2 1.1-.4v.5h1.1v-3.9h-1.1zm0 1.9c0 .3-.1.6-.3.9-.1.1-.2.2-.3.2-.1.1-.3.1-.4.1-.1 0-.3 0-.4-.1-.1-.1-.2-.1-.3-.3-.2-.2-.3-.6-.3-.9 0-.3.1-.6.3-.8.1-.1.2-.2.3-.2.1-.1.3-.1.4-.1.1 0 .3 0 .4.1.1.1.2.1.3.3.2.2.3.5.3.8z" fill="#fff"/><linearGradient id="SVGID_1_" gradientUnits="userSpaceOnUse" x1="13" y1="1055.8" x2="13" y2="1064.159" gradientTransform="translate(0 -1014)"><stop offset="0" stop-color="#0160d1"/><stop offset="1" stop-color="#00479c"/></linearGradient><path d="M13 41.8c-2.3 0-4.2 1.9-4.2 4.2s1.9 4.2 4.2 4.2 4.2-1.9 4.2-4.2-1.9-4.2-4.2-4.2zm0 5.7c-.8 0-1.6-.7-1.6-1.6 0-.8.7-1.6 1.6-1.6.8 0 1.6.7 1.6 1.6-.1.9-.7 1.6-1.6 1.6z" fill="url(#SVGID_1_)"/><linearGradient id="SVGID_2_" gradientUnits="userSpaceOnUse" x1="7.1" y1="1056.984" x2="7.1" y2="1063.069" gradientTransform="translate(0 -1014)"><stop offset="0" stop-color="#0160d1"/><stop offset="1" stop-color="#00479c"/></linearGradient><path d="M8.8 43v6.1H7.3L5.4 43h3.4z" fill="url(#SVGID_2_)"/></svg>