<svg height="64" id="Layer_1" version="1.1" width="64" xml:space="preserve" xmlns="http://www.w3.org/2000/svg"><g id="saving"><path fill="#546E7A" d="M32 19h-3L24 6l8 1z"/><path fill="#607D8B" d="M39 19h-8V3l14 3z"/><path d="M56 50.5V39c0-11.55-9.45-21-21-21h-2c-11.55 0-21 9.45-21 21v11.5c0 1.5 0 3.5-1.5 4.5S9 58.672 9 59.5V61h50v-1.5c0-.828 0-3.5-1.5-4.5S56 52 56 50.5z" fill="#607D8B"/><path d="M56 50.5V39c0-11.55-9.45-21-21-21 0 0 11 6 11 21 0 19-1 21-16 21-1 0 15 1 14 1h15v-1.5c0-.828 0-3.5-1.5-4.5S56 52 56 50.5z" fill="#546E7A"/><path d="M41.833 5.321C41.11 10.834 37.887 15 34 15c-1.062 0-2.073-.317-3-.881V19h8l6-13-3.167-.679z" fill="#546E7A"/><path d="M33 18a20.79 20.79 0 00-6.806 1.161C26.815 19.634 29.036 21 34 21s7.185-1.366 7.806-1.839A20.79 20.79 0 0035 18h-2z" fill="#546E7A"/><path d="M40.895 17.56a1.003 1.003 0 00-1.336-.457C39.54 17.112 37.665 18 34 18c-3.632 0-5.506-.872-5.558-.896a1 1 0 00-.89 1.791C27.644 18.939 29.813 20 34 20s6.356-1.061 6.447-1.105a.998.998 0 00.448-1.335z" fill="#37474F"/><path d="M40.895 17.56a1.003 1.003 0 00-1.336-.457C39.54 17.112 37.665 18 34 18c-3.632 0-5.506-.872-5.558-.896a1 1 0 00-.89 1.791C27.644 18.939 29.813 20 34 20s6.356-1.061 6.447-1.105a.998.998 0 00.448-1.335z" fill="#37474F"/><path fill="#455A64" d="M9 60h50v1H9z"/><path fill="#FFD740" d="M24 57h18v4H24z"/><path fill="#FFE57F" d="M24 57h9v4h-9z"/><path fill="#FFC400" d="M24 60h18v1H24z"/><path fill="#FFF" d="M25 57h1v3h-1z"/><path fill="#FFC400" d="M35 57h1v3h-1zm2 0h1v3h-1zm2 0h1v3h-1zm2 0h1v3h-1z"/><path fill="#FFD740" d="M23 53h18v4H23z"/><path fill="#FFE57F" d="M23 53h9v4h-9z"/><path fill="#FFC400" d="M23 56h18v1H23z"/><path fill="#FFF" d="M24 53h1v3h-1z"/><path fill="#FFC400" d="M34 53h1v3h-1zm2 0h1v3h-1zm2 0h1v3h-1zm2 0h1v3h-1z"/><path fill="#FFD740" d="M6 49h18v4H6z"/><path fill="#FFE57F" d="M6 49h9v4H6z"/><path fill="#FFC400" d="M6 52h18v1H6z"/><path fill="#FFF" d="M7 49h1v3H7z"/><path fill="#FFC400" d="M17 49h1v3h-1zm2 0h1v3h-1zm2 0h1v3h-1zm2 0h1v3h-1z"/><path d="M27.989 50.011c-3.313-3.314-3.313-8.707 0-12.021 3.314-3.313 8.707-3.313 12.021 0 3.313 3.314 3.313 8.707 0 12.021-3.314 3.313-8.706 3.313-12.021 0z" fill="#FFD740"/><path d="M34 36c4.411 0 8 3.589 8 8s-3.589 8-8 8-8-3.589-8-8 3.589-8 8-8m0-1a9 9 0 100 18 9 9 0 000-18z" fill="#FDD835"/><path d="M27.133 48.563c-1.367-3.184-.766-7.009 1.835-9.609 2.734-2.734 6.827-3.263 10.1-1.606 0-.093.001-.186.007-.279-3.363-2.06-7.813-1.642-10.725 1.269-2.779 2.779-3.291 6.967-1.539 10.267.106-.019.213-.035.322-.042z" fill="#FFF"/><path d="M34 50.5c-3.584 0-6.5-2.916-6.5-6.5s2.916-6.5 6.5-6.5 6.5 2.916 6.5 6.5-2.916 6.5-6.5 6.5z" fill="#FFE57F"/><path d="M34 38c3.309 0 6 2.691 6 6s-2.691 6-6 6-6-2.691-6-6 2.691-6 6-6m0-1c-3.865 0-7 3.137-7 7s3.135 7 7 7 7-3.137 7-7-3.135-7-7-7z" fill="#FFC400"/><path d="M34 41c.719 0 1 .521 1 1h2c0-.814-.674-1.619-2-1.894V39h-2v1.092c-1.326.24-2 1.009-2 2.408 0 1.313 1.031 2.5 3 2.5.577 0 1 .438 1 1 0 .595-.334 1-1 1s-1-.367-1-1h-2c0 1.245.684 1.78 2 1.94V49h2v-1.075c1.326-.2 2.025-.874 2-2.425 0-1.375-1-2.499-3-2.499-.563 0-1-.313-1-1.001 0-.518.281-1 1-1z" fill="#FFAB00"/><path d="M34 36c4.411 0 8 3.589 8 8s-3.589 8-8 8-8-3.589-8-8 3.589-8 8-8m0-1a9 9 0 100 18 9 9 0 000-18z" fill="#FFC400"/><path fill="#FFD740" d="M6 57h18v4H6z"/><path fill="#FFE57F" d="M6 57h9v4H6z"/><path fill="#FFC400" d="M6 60h18v1H6z"/><path fill="#FFF" d="M7 57h1v3H7z"/><path fill="#FFC400" d="M17 57h1v3h-1zm2 0h1v3h-1zm2 0h1v3h-1zm2 0h1v3h-1z"/><path fill="#FFD740" d="M5 53h18v4H5z"/><path fill="#FFE57F" d="M5 53h9v4H5z"/><path fill="#FFC400" d="M5 56h18v1H5z"/><path fill="#FFF" d="M6 53h1v3H6z"/><path fill="#FFC400" d="M16 53h1v3h-1zm2 0h1v3h-1zm2 0h1v3h-1zm2 0h1v3h-1z"/><path d="M8.989 46.011c-3.313-3.314-3.313-8.707 0-12.021 3.314-3.313 8.707-3.313 12.021 0 3.313 3.314 3.313 8.707 0 12.021-3.314 3.313-8.706 3.313-12.021 0z" fill="#FFD740"/><path d="M15 32c4.411 0 8 3.589 8 8s-3.589 8-8 8-8-3.589-8-8 3.589-8 8-8m0-1a9 9 0 100 18 9 9 0 000-18z" fill="#FDD835"/><path d="M8.134 44.563c-1.368-3.185-.767-7.01 1.834-9.61 2.734-2.734 6.827-3.263 10.101-1.606-.001-.093 0-.186.007-.279-3.364-2.06-7.814-1.642-10.726 1.269-2.779 2.779-3.291 6.967-1.539 10.267.106-.018.214-.034.323-.041z" fill="#FFF"/><path d="M15 46.5c-3.584 0-6.5-2.916-6.5-6.5s2.916-6.5 6.5-6.5 6.5 2.916 6.5 6.5-2.916 6.5-6.5 6.5z" fill="#FFE57F"/><path d="M15 34c3.309 0 6 2.691 6 6s-2.691 6-6 6-6-2.691-6-6 2.691-6 6-6m0-1c-3.865 0-7 3.137-7 7s3.135 7 7 7 7-3.137 7-7-3.135-7-7-7z" fill="#FFC400"/><path d="M15 37c.719 0 1 .521 1 1h2c0-.814-.674-1.619-2-1.894V35h-2v1.092c-1.326.24-2 1.009-2 2.408 0 1.313 1.031 2.5 3 2.5.577 0 1 .438 1 1 0 .595-.334 1-1 1s-1-.367-1-1h-2c0 1.245.684 1.78 2 1.94V45h2v-1.075c1.326-.2 2.025-.874 2-2.425 0-1.375-1-2.499-3-2.499-.563 0-1-.313-1-1.001 0-.518.281-1 1-1z" fill="#FFAB00"/><path d="M15 32c4.411 0 8 3.589 8 8s-3.589 8-8 8-8-3.589-8-8 3.589-8 8-8m0-1a9 9 0 100 18 9 9 0 000-18z" fill="#FFC400"/></g></svg>