<svg xmlns="http://www.w3.org/2000/svg" viewBox="0 0 64 64"><g id="Слой_2"><path d="M13.4 58l.6.6c.9.9 2 1.3 3.2 1.3l21.2-.2c1.5 0 2.8-.7 3.7-1.9.5-.8.8-1.7.8-2.6v-46c0-1.2-.5-2.4-1.3-3.2l-.6-.7c-.9-.8-2-1.3-3.2-1.3H17.2c-1.2 0-2.4.5-3.2 1.3l-.6.7c-.9.8-1.4 2-1.4 3.2v45.7c0 1.1.5 2.3 1.4 3.1z" fill="#666"/><linearGradient id="SVGID_1_" gradientUnits="userSpaceOnUse" x1="27.481" y1="-2.313" x2="27.481" y2="28.584"><stop offset="0" stop-color="red"/><stop offset=".149" stop-color="#ff2400"/><stop offset=".45" stop-color="#ff6800"/><stop offset=".703" stop-color="#ff9a00"/><stop offset=".893" stop-color="#ffb900"/><stop offset="1" stop-color="#ffc400"/></linearGradient><path fill="url(#SVGID_1_)" d="M12 12.3h30.9V49H12z"/><path fill="red" d="M28.4 41.7v-6.8h-3.8V14.6H57v20.3H37.5z"/><circle cx="27.5" cy="54.5" r="3.6" fill="#a8a8a8"/><linearGradient id="SVGID_2_" gradientUnits="userSpaceOnUse" x1="30.726" y1="32.473" x2="24.397" y2="51.821"><stop offset="0" stop-color="#ffc400"/><stop offset=".104" stop-color="#ffba00"/><stop offset=".282" stop-color="#ff9f00"/><stop offset=".512" stop-color="#ff7300"/><stop offset=".782" stop-color="#ff3600"/><stop offset="1" stop-color="red"/></linearGradient><path fill="url(#SVGID_2_)" d="M24.6 14.6v20.3h3.8v6.8l9.1-6.8h5.4v1.3h-5L26.8 45v-8.2h-4.2V16.4z"/><path d="M31.8 21.5c.7 0 1 .5 1 1h2c0-.8-.7-1.6-2-1.9v-1.1h-2v1.1c-1.3.2-2 1-2 2.4 0 1.3 1 2.5 3 2.5.6 0 1 .4 1 1s-.3 1-1 1-1-.4-1-1h-2c0 1.2.7 1.8 2 1.9v1.1h2v-1.1c1.3-.2 2-.9 2-2.4 0-1.4-1-2.5-3-2.5-.6 0-1-.3-1-1 0-.5.2-1 1-1zm9 0c.7 0 1 .5 1 1h2c0-.8-.7-1.6-2-1.9v-1.1h-2v1.1c-1.3.2-2 1-2 2.4 0 1.3 1 2.5 3 2.5.6 0 1 .4 1 1s-.3 1-1 1-1-.4-1-1h-2c0 1.2.7 1.8 2 1.9v1.1h2v-1.1c1.3-.2 2-.9 2-2.4 0-1.4-1-2.5-3-2.5-.6 0-1-.3-1-1 0-.5.2-1 1-1zm9 0c.7 0 1 .5 1 1h2c0-.8-.7-1.6-2-1.9v-1.1h-2v1.1c-1.3.2-2 1-2 2.4 0 1.3 1 2.5 3 2.5.6 0 1 .4 1 1s-.3 1-1 1-1-.4-1-1h-2c0 1.2.7 1.8 2 1.9v1.1h2v-1.1c1.3-.2 2-.9 2-2.4 0-1.4-1-2.5-3-2.5-.6 0-1-.3-1-1 0-.5.2-1 1-1z" fill="#ffab00"/></g></svg>