<svg width="12" height="12" xmlns="http://www.w3.org/2000/svg"><path fill="none" id="canvas_background" d="M-1-1h14v14H-1z"/><g fill-rule="evenodd" fill="#FCB316" clip-rule="evenodd"><path stroke="null" id="svg_4" d="M11.096 11.235c-.05-.133-.137-.227-.201-.344a4.907 4.907 0 00-.521-.556c-.064-.022-.092-.082-.154-.106-.04-.051-.104-.078-.154-.119a3.044 3.044 0 00-.331-.213c-.218-.14-.49-.227-.758-.32a9.403 9.403 0 00-.91-.165c-.314-.046-.63-.09-.864-.213-.138-.04-.238-.117-.356-.177-.108-.073-.229-.134-.319-.225-.113-.068-.183-.18-.272-.272-.031-.06-.083-.1-.107-.166-.031-.012-.039-.048-.059-.071-.023-.025-.022-.073-.06-.083a1.74 1.74 0 000 .403c.017.055.022.12.036.177.01.05.055.127.036.166-.95-.048-1.644-.352-2.249-.746a4.436 4.436 0 01-.792-.698c-.105-.144-.217-.28-.308-.438-.096-.157-.174-.33-.26-.497-.14-.358-.271-.723-.32-1.171a3.757 3.757 0 01.047-1.338c.035-.214.105-.392.166-.58.041-.085.082-.17.118-.26.052-.074.08-.173.142-.237.176-.325.433-.569.699-.804a2.914 2.914 0 011.005-.485 3.26 3.26 0 011.302-.012 4.06 4.06 0 011.977 1.018 4.5 4.5 0 011.218 1.775c.29.683.39 1.745.13 2.52-.105-.06-.212-.12-.32-.177-.128-.038-.252-.079-.401-.095-.18-.003-.356 0-.474.06.235-.025.424.04.568.094.087.033.135.056.201.094.132.076.248.148.344.249.277.243.475.566.568.994 0 .012.015.01.011-.012.014-.002.019-.013.024-.023.016-.02.034-.038.048-.06a.501.501 0 00.082-.118 1.58 1.58 0 00.166-.249c.113-.163.199-.353.296-.532.169-.383.306-.799.39-1.266a4.653 4.653 0 00-.39-2.758 4.472 4.472 0 00-1.54-1.763A4.65 4.65 0 006.03.643c-.005-.02-.015.003-.036 0a5.01 5.01 0 00-1.479.178c-.209.07-.43.13-.615.225-.215.07-.383.185-.58.272-.072.066-.176.1-.249.166-.094.047-.164.12-.26.165-.151.133-.315.253-.461.39-.147.134-.274.288-.415.427-.02.05-.058.083-.094.118a.405.405 0 01-.095.119c-.015.055-.064.077-.083.13-.04.03-.049.092-.094.118-.041.097-.11.168-.154.26-.054.089-.097.187-.154.272-.085.2-.178.39-.248.604a4.346 4.346 0 00-.178.663 3.596 3.596 0 00-.083.745c-.03.087-.005.243 0 .343.001.017-.012.026-.012.036 0 .111.032.248.036.32.025.258.07.498.142.71.046.234.143.416.213.627.106.177.18.386.307.544.096.185.229.332.356.485.138.145.273.295.437.414.302.263.656.473 1.042.651.722.35 1.8.58 2.769.52.248-.031.497-.062.721-.118.209-.075.448-.12.699-.153a4.358 4.358 0 011.502.142c.447.118.83.299 1.16.532.176.104.324.237.474.367.151.133.275.292.414.438.019.055.054.095.083.142.036.038.018.131.106.118.056-.053-.01-.134-.012-.201-.038-.052-.051-.13-.094-.177z"/><path id="svg_5" d="M8.885 7.992c-.012 0-.014.01-.024.012-.02.046-.011.118 0 .166.063.13.086.3.225.355.069-.022.062-.12.06-.213a.729.729 0 00-.143-.296c-.05-.018-.083-.046-.118-.024z"/><path id="svg_6" d="M8.057 8.324c0-.007-.01-.014-.012 0-.117-.014-.157.048-.213.094-.1.266.06.526.343.52a.252.252 0 00.201-.224c-.013-.223-.11-.364-.32-.39z"/></g></svg>