<svg width="140" height="140" xmlns="http://www.w3.org/2000/svg"><path fill="none" id="canvas_background" d="M-1-1h142v142H-1z"/><g fill="#006EB8"><path id="svg_6" d="M70.801 10.873c9.027 0 17.577 2.1 25.192 5.835a52.403 52.403 0 013.584 1.876l-5.29 4.74-7.954-8.223L72.91 27.073l-7.974-8.703-25.002 22.542 16.032 17.664-6.3 5.542 15.789 17.694-6.262 5.524 22.561 25.113 13.392-12.33 11.578 13.212a61.393 61.393 0 01-7.574 5.035 57.077 57.077 0 01-28.349 7.507c-31.671 0-57.501-25.83-57.501-57.5 0-31.671 25.83-57.5 57.501-57.5z"/><path id="svg_7" d="M60.321 64.74l13.674-12.313L86.308 66.1 72.633 78.413z"/><path id="svg_8" d="M70.046 88.368l13.675-12.312 12.31 13.673-13.674 12.315z"/><path id="svg_9" d="M50.537 41.39l13.672-12.311L76.52 42.752l-13.672 12.31z"/><path id="svg_10" d="M75.629 34.765l10.254-9.234 9.233 10.256-10.254 9.234z"/><path id="svg_11" d="M93.852 77.055l10.253-9.233 9.234 10.257-10.254 9.232z"/><path id="svg_12" d="M102.869 97.768l10.256-9.232 9.233 10.254-10.255 9.232z"/><path id="svg_13" d="M107.003 50.294l6.836-6.157 6.158 6.839-6.837 6.155z"/><path id="svg_14" d="M98.267 29.98l6.835-6.154 6.156 6.838-6.837 6.155z"/><path id="svg_15" d="M115.741 70.607l6.838-6.155 6.155 6.838-6.837 6.154z"/><path id="svg_16" d="M85.083 55.384l10.252-9.233 9.234 10.256-10.253 9.234z"/></g></svg>