<svg id="Layer_1_1_" version="1.1" viewBox="0 0 64 64" xml:space="preserve" xmlns="http://www.w3.org/2000/svg"><path d="M11.27 4.308L8 3v10l3.27-1.308A9.677 9.677 0 0114.863 11H20V5h-5.137a9.677 9.677 0 01-3.593-.692z" fill="#e8e8e8"/><path fill="#ef476f" d="M16 5h4v6h-4z"/><path d="M52.73 4.308L56 3v10l-3.27-1.308A9.677 9.677 0 0049.137 11H44V5h5.137c1.231 0 2.45-.235 3.593-.692z" fill="#e8e8e8"/><path transform="rotate(-180 46 8)" fill="#ef476f" d="M44 5h4v6h-4z"/><path d="M47 32c0-8.52-7.103-15.381-15.711-14.984-7.674.354-13.972 6.696-14.277 14.372-.212 5.328 2.36 10.065 6.376 12.886 1.035.727 1.612 1.944 1.612 3.208V51h14v-3.52c0-1.271.59-2.486 1.629-3.218C44.481 41.549 47 37.07 47 32z" fill="#ffed80"/><path d="M44.941 24.432c.035.519.059 1.041.059 1.568 0 11.685-8.716 21.328-20 22.799V51h14v-3.52c0-1.271.59-2.486 1.629-3.218C44.481 41.549 47 37.07 47 32c0-2.763-.756-5.345-2.059-7.568z" fill="#f2e079"/><path d="M33 61h-2a4 4 0 01-4-4h10a4 4 0 01-4 4z" fill="#6d6d6d"/><circle cx="32" cy="31" r="8" fill="#e8e8e8"/><path d="M32 30c-.551 0-1-.449-1-1s.449-1 1-1 1 .449 1 1h2a2.996 2.996 0 00-2-2.816V25h-2v1.184A2.996 2.996 0 0029 29c0 1.654 1.346 3 3 3 .551 0 1 .449 1 1s-.449 1-1 1-1-.449-1-1h-2c0 1.302.839 2.402 2 2.816V37h2v-1.184A2.996 2.996 0 0035 33c0-1.654-1.346-3-3-3z" fill="#6d6d6d"/><path d="M32 40c4.962 0 9-4.038 9-9s-4.038-9-9-9-9 4.038-9 9 4.038 9 9 9zm0-16c3.86 0 7 3.14 7 7s-3.14 7-7 7-7-3.14-7-7 3.14-7 7-7zm-1 38h2c2.757 0 5-2.243 5-5a1 1 0 00-1-1H27a1 1 0 00-1 1c0 2.757 2.243 5 5 5zm4.829-4A3.006 3.006 0 0133 60h-2a3.006 3.006 0 01-2.829-2h7.658z" fill="#3d3d3d"/><path d="M16.013 31.349a15.954 15.954 0 006.801 13.744c.743.522 1.186 1.415 1.186 2.389V51a1 1 0 001 1h14a1 1 0 001-1v-3.52c0-.971.451-1.868 1.206-2.4A16.027 16.027 0 0048 32c0-4.414-1.759-8.524-4.952-11.573-3.192-3.047-7.398-4.613-11.805-4.409-8.214.378-14.903 7.113-15.23 15.331zm15.322-13.333c3.875-.181 7.54 1.191 10.332 3.858A13.878 13.878 0 0146 32c0 4.543-2.223 8.821-5.946 11.445C38.768 44.351 38 45.859 38 47.48V50h-5v-3a1 1 0 00-.375-.781L29.851 44h4.735l-1.293 1.293 1.414 1.414L36 45.414c.574-.574.744-1.429.434-2.179S35.397 42 34.586 42h-4.735c-.861 0-1.602.525-1.887 1.338a1.976 1.976 0 00.638 2.223L31 47.48V50h-5v-2.518c0-1.625-.761-3.129-2.037-4.025a13.964 13.964 0 01-5.952-12.028c.286-7.19 6.139-13.082 13.324-13.413zM37.833 53H26.167c-.645 0-1.167.448-1.167 1s.522 1 1.167 1h11.667c.644 0 1.166-.448 1.166-1s-.522-1-1.167-1z" fill="#3d3d3d"/><path transform="rotate(-71.567 3.5 3.5)" fill="#3d3d3d" d="M2.5 1.919h2v3.162h-2z"/><path fill="#3d3d3d" d="M1 7h3v2H1z"/><path transform="rotate(-18.45 3.499 12.5)" fill="#3d3d3d" d="M1.919 11.5h3.162v2H1.919z"/><path d="M7.439 13.828a.999.999 0 00.933.101l3.271-1.308a8.6 8.6 0 013.22-.621H16v4h2v-4h2a1 1 0 001-1V5a1 1 0 00-1-1h-5.137a8.609 8.609 0 01-3.221-.621l-3.27-1.308A1.001 1.001 0 007 3v10c0 .332.165.642.439.828zM19 10h-2V6h2v4zM9 4.477l1.899.76c1.267.506 2.6.763 3.964.763H15v4h-.137a10.64 10.64 0 00-3.964.763L9 11.523V4.477z" fill="#3d3d3d"/><path transform="rotate(-18.45 60.494 3.505)" fill="#3d3d3d" d="M58.919 2.5h3.162v2h-3.162z"/><path fill="#3d3d3d" d="M60 7h3v2h-3z"/><path transform="rotate(-71.567 60.498 12.5)" fill="#3d3d3d" d="M59.5 10.919h2v3.162h-2z"/><path d="M44 12h2v4h2v-4h1.137c1.108 0 2.192.208 3.221.621l3.271 1.308a.998.998 0 00.932-.101c.274-.186.439-.496.439-.828V3a1.001 1.001 0 00-1.371-.929l-3.271 1.308A8.609 8.609 0 0149.137 4H44a1 1 0 00-1 1v6a1 1 0 001 1zm9.101-6.763L55 4.477v7.046l-1.899-.76A10.64 10.64 0 0049.137 10H49V6h.137a10.64 10.64 0 003.964-.763zM45 6h2v4h-2V6zm1 12h2v2h-2zm4 0h2v2h-2zM20 54h2v2h-2zm-4 0h2v2h-2zm-4 0h2v2h-2zm-4 0h2v2H8zm0-16h2v2H8zm0 4h2v2H8zm0 4h2v2H8zm0 4h2v2H8zm8-32h2v2h-2zm-4 0h2v2h-2zm-4 8h2v2H8zm0 4h2v2H8zm0 4h2v2H8zm0-16h2v2H8zm0 4h2v2H8zm34 32h2v2h-2zm4 0h2v2h-2zm4 0h2v2h-2zm4 0h2v2h-2zm0-16h2v2h-2zm0 4h2v2h-2zm0 4h2v2h-2zm0 4h2v2h-2zm0-24h2v2h-2zm0 4h2v2h-2zm0 4h2v2h-2zm0-16h2v2h-2zm0 4h2v2h-2z" fill="#3d3d3d"/></svg>