<svg id="Layer_1_1_" version="1.1" viewBox="0 0 64 64" xml:space="preserve" xmlns="http://www.w3.org/2000/svg"><circle cx="38" cy="15" r="2" fill="#ef476f"/><circle cx="39" cy="24" r="2" fill="#ef476f"/><circle cx="38" cy="32" r="2" fill="#ef476f"/><circle cx="49" cy="27" r="2" fill="#ef476f"/><circle cx="46" cy="17" r="2" fill="#ef476f"/><path d="M27 13c-1.69 0-3.17.84-4.07 2.12-.3-.07-.61-.12-.93-.12-2.21 0-4 1.79-4 4 0 .14.03.27.04.4A4.988 4.988 0 0015 24c0 1.13.39 2.16 1.02 3A4.98 4.98 0 0015 30c0 1.63.79 3.09 2 4h15V18c0-2.76-2.24-5-5-5z" fill="#f2d26e"/><path d="M16 34c0 5.15 2.72 9.7 6.86 12.43C24.8 47.71 26 49.76 26 52h12c0-1.12.3-2.19.84-3.14.54-.96 1.33-1.79 2.3-2.43C45.28 43.7 48 39.15 48 34H16z" fill="#ffed80"/><path d="M43.204 34c-2.23 8.272-8.955 14.697-17.396 16.493.122.488.192.992.192 1.507h12c0-1.12.3-2.19.84-3.14.54-.96 1.33-1.79 2.3-2.43C45.28 43.7 48 39.15 48 34h-4.796z" fill="#f2e079"/><path d="M32.944 62H31a4 4 0 01-4-4h9.944a4 4 0 01-4 4z" fill="#6d6d6d"/><path d="M31 63h1.944c2.757 0 5-2.243 5-5a1 1 0 00-1-1H27a1 1 0 00-1 1c0 2.757 2.243 5 5 5zm4.773-4a3.006 3.006 0 01-2.829 2H31a3.006 3.006 0 01-2.829-2h7.602zm5.101-44.812C40.517 12.93 39.371 12 38 12s-2.517.93-2.874 2.188l-2.979.745A5.995 5.995 0 0027 12a5.981 5.981 0 00-4.483 2.031A4.356 4.356 0 0022 14a5.006 5.006 0 00-4.996 4.8A5.987 5.987 0 0014 24c0 1.056.282 2.08.82 3a5.915 5.915 0 00-.82 3c0 1.268.418 2.494 1.148 3.508A.966.966 0 0015 34c0 5.288 2.732 10.247 7.31 13.265C23.994 48.376 25 50.146 25 52a1 1 0 001 1h12a1 1 0 001-1 5.3 5.3 0 01.711-2.65c.457-.811 1.142-1.532 1.979-2.085C46.268 44.247 49 39.288 49 34a.993.993 0 00-.566-.891l1.282-3.204A3 3 0 0052 27c0-1.38-.941-2.533-2.211-2.881L48.3 18.902c.431-.519.7-1.176.7-1.902 0-1.654-1.346-3-3-3-.85 0-1.615.359-2.161.929l-2.965-.741zm5.644 5.76l1.236 4.332a3.008 3.008 0 00-1.453 1.434l-4.329-1.443c.009-.091.028-.179.028-.271a2.95 2.95 0 00-.301-1.285l3.015-3.015c.392.187.824.3 1.286.3.177 0 .349-.023.518-.052zM40.816 33c.112-.314.184-.648.184-1 0-.101-.02-.197-.03-.296l6.218-2.329c.146.112.302.209.468.292L46.323 33h-5.507zm-1.601-3.738l.597-2.388a2.997 2.997 0 001.325-.774l4.811 1.604-5.823 2.182a2.998 2.998 0 00-.91-.624zM39 23a1.001 1.001 0 11-1 1c0-.551.448-1 1-1zm-1.812 6.126a2.98 2.98 0 00-1.265.718L33 28.382v-.705l3.884-1.553c.258.257.564.464.901.614l-.597 2.388zm-1.157-4.816L33 25.523v-3.757l3.041 1.825c-.018.135-.041.269-.041.409 0 .106.021.207.031.31zM33 30.618l2.037 1.018c-.015.121-.037.24-.037.364 0 .352.072.686.184 1H33v-2.382zM37 32a1.001 1.001 0 111 1c-.552 0-1-.449-1-1zm6.301-13.715L40.286 21.3a2.985 2.985 0 00-.438-.164l-.675-3.376a3.016 3.016 0 001.566-1.546l2.284.571c-.007.073-.023.142-.023.215 0 .462.113.894.301 1.285zM38 14a1.001 1.001 0 11-1 1c0-.551.448-1 1-1zm-2.737 2.215a3 3 0 001.89 1.648l.675 3.376a3.02 3.02 0 00-.866.572L33 19.434V18c0-.407-.042-.805-.119-1.189l2.382-.596zM16.819 27.6c.133-.178.2-.389.2-.6H18c1.654 0 3 1.346 3 3v1h2v-1c0-2.757-2.243-5-5-5h-1.855A3.837 3.837 0 0116 24a3.99 3.99 0 012.431-3.68.998.998 0 00.606-.996c-.005-.071-.015-.143-.024-.214-.005-.036-.013-.072-.013-.11 0-1.654 1.346-3 3-3 0 2.757 2.243 5 5 5h1v-2h-1c-1.654 0-3-1.346-3-3v-.621A3.977 3.977 0 0127 14c2.206 0 4 1.794 4 4v6c-2.757 0-5 2.243-5 5h2c0-1.654 1.346-3 3-3v7H17.391C16.526 32.243 16 31.152 16 30c0-.855.283-1.685.819-2.4zm23.77 17.995c-1.103.728-2.009 1.687-2.618 2.771a7.426 7.426 0 00-.9 2.634H33v-4a.997.997 0 00-.293-.707l-3.586-3.586a.396.396 0 01-.09-.451.396.396 0 01.383-.256c.109 0 .216.044.293.121l.586.586a2.42 2.42 0 003.414 0l.587-.586a.413.413 0 01.292-.121c.24 0 .343.16.383.256a.396.396 0 01-.09.451l-1.586 1.586 1.414 1.414 1.586-1.586c.693-.693.898-1.726.523-2.631S35.565 40 34.586 40c-.637 0-1.259.258-1.707.707l-.586.585a.414.414 0 01-.586 0l-.585-.585A2.431 2.431 0 0029.414 40c-.979 0-1.855.585-2.23 1.49s-.17 1.938.523 2.631L31 47.414V51h-4.07c-.303-2.148-1.57-4.119-3.519-5.405-3.723-2.454-6.055-6.361-6.373-10.595h29.924c-.318 4.234-2.65 8.141-6.373 10.595zM49 28a1.001 1.001 0 010-2 1.001 1.001 0 010 2zm-3-12a1.001 1.001 0 11-1 1c0-.551.448-1 1-1zM31 1h2v4h-2zm27 30h4v2h-4zM2 31h4v2H2z" fill="#3d3d3d"/><path transform="rotate(-45.001 10.988 10.988)" fill="#3d3d3d" d="M9.988 8.988h2v4h-2z"/><path transform="rotate(-45.001 54.586 10.988)" fill="#3d3d3d" d="M52.586 9.988h4v2h-4z"/><path d="M37 54H27a1 1 0 000 2h10a1 1 0 000-2z" fill="#3d3d3d"/></svg>