<svg id="Layer_1_1_" version="1.1" viewBox="0 0 64 64" xml:space="preserve" xmlns="http://www.w3.org/2000/svg"><circle cx="32" cy="14" r="4" fill="#99e1ff"/><path d="M39 8v9c0 .55-.45 1-1 1H26c-.55 0-1-.45-1-1V8h-4v10c0 2.21 1.79 4 4 4h2v8h10v-8h2c2.21 0 4-1.79 4-4V8h-4z" fill="#99e1ff"/><path fill="#ef476f" d="M7 3l1.236 2.633L11 6.056l-2 2.05L9.472 11 7 9.633 4.528 11 5 8.106l-2-2.05 2.764-.423zm50 0l1.236 2.633L61 6.056l-2 2.05.472 2.894L57 9.633 54.528 11 55 8.106l-2-2.05 2.764-.423z"/><path d="M40.486 41.975L41 30H23l.514 11.975c1.124 3.204 4.001 5.58 7.486 5.966V55h-3.279a1 1 0 00-.949.684L25 61h14l-1.772-5.316a1 1 0 00-.949-.684H33v-7.059c3.485-.385 6.362-2.762 7.486-5.966z" fill="#ffdc73"/><path fill="#ffac3e" d="M36 61h-8l1-4h6zm-4-23c-.551 0-1-.449-1-1s.449-1 1-1 1 .449 1 1h2a2.996 2.996 0 00-2-2.816V33h-2v1.184A2.996 2.996 0 0029 37c0 1.654 1.346 3 3 3 .551 0 1 .449 1 1s-.449 1-1 1-1-.449-1-1h-2c0 1.302.839 2.402 2 2.816V45h2v-1.184A2.996 2.996 0 0035 41c0-1.654-1.346-3-3-3z"/><path d="M7.64 16.434C8.182 15.982 9 15.301 9 14H7c0 .321-.129.471-.64.896C5.818 15.348 5 16.029 5 17.33c0 1.302.818 1.983 1.359 2.435.485.404.641.562.641.9 0 .337-.156.495-.641.898C5.818 22.016 5 22.697 5 24h2c0-.338.156-.496.641-.9C8.182 22.648 9 21.967 9 20.665c0-1.303-.818-1.984-1.359-2.437-.485-.403-.641-.561-.641-.898 0-.321.129-.471.64-.896zm50 0C58.182 15.982 59 15.301 59 14h-2c0 .321-.129.471-.64.896-.542.452-1.36 1.133-1.36 2.434 0 1.302.818 1.983 1.359 2.435.484.404.641.562.641.9 0 .337-.156.495-.641.898C55.818 22.016 55 22.697 55 24h2c0-.338.156-.496.641-.9.541-.452 1.359-1.133 1.359-2.435 0-1.303-.818-1.984-1.359-2.437-.485-.403-.641-.561-.641-.898 0-.321.129-.471.64-.896zM5 46h2v2H5zm10 8h2v2h-2zm40-11h2v2h-2zm-9 14h2v2h-2zm3-25a1 1 0 00-1-1h-6v-1a1 1 0 00-1-1h-3v-6h1c2.757 0 5-2.243 5-5V8a1 1 0 00-1-1h-4a1 1 0 00-1 1v9h-2.026A4.948 4.948 0 0037 14c0-2.757-2.243-5-5-5s-5 2.243-5 5c0 1.13.391 2.162 1.026 3H26V8a1 1 0 00-1-1h-4a1 1 0 00-1 1v10c0 2.757 2.243 5 5 5h1v6h-3a1 1 0 00-1 1v1h-6a1 1 0 00-1 1v2c0 4.226 3.296 7.688 7.451 7.972 1.173 3.761 4.512 6.574 8.549 6.977V54h-4a.998.998 0 00-.948.684l-2 6A1 1 0 0025 62h14a1 1 0 00.949-1.316l-2-6A1 1 0 0037 54h-4v-5.051c4.037-.403 7.376-3.216 8.549-6.977C45.704 41.688 49 38.226 49 34v-2zm-32 2v-1h5v6c0 .309.019.614.047.917C19.191 39.458 17 36.983 17 34zm20.612 26H26.388l1.333-4h8.559l1.332 4zM29 14c0-1.654 1.346-3 3-3s3 1.346 3 3-1.346 3-3 3-3-1.346-3-3zm-2 7h-2c-1.654 0-3-1.346-3-3V9h2v8c0 1.103.897 2 2 2h12c1.103 0 2-.897 2-2V9h2v9c0 1.654-1.346 3-3 3h-2a1 1 0 00-1 1v7h-8v-7a1 1 0 00-1-1zm13 18c0 4.411-3.589 8-8 8s-8-3.589-8-8v-8h16v8zm7-5c0 2.983-2.191 5.458-5.047 5.917.028-.303.047-.608.047-.917v-6h5v1z" fill="#3d3d3d"/></svg>