<svg version="1.0" id="Направляющие" xmlns="http://www.w3.org/2000/svg" x="0" y="0" viewBox="0 0 60 85" xml:space="preserve"><path id="конвертеры_1_" fill="#BCB253" d="M0 0h60v85H0z"/><g id="punycode"><path fill="none" d="M33.3 47.7V31.2h-2.9s-.8 0-.8-.9v-2.7H19.4c-.7 0-1.4.7-1.4 1.5v18.7c0 .8.6 1.5 1.4 1.5H32c.7-.1 1.3-.8 1.3-1.6zM19.9 30.9h6.6v.8h-6.6v-.8zm11.6 13.3H19.9v-.8h11.6v.8zm0-3.1H19.9v-.8h11.6v.8zm0-3.1H19.9v-.8h11.6v.8zm0-3.2H19.9V34h11.6v.8z"/><path fill="none" d="M30.8 30.5h1.8l-2.4-2.3V30c.1.5.6.5.6.5zm8.1 8.1c0 .6.5.6.5.6h1.8l-2.4-2.3v1.7z"/><path fill="#FFF" d="M34.3 48.6V30.7L30 26.6H18.6c-.9 0-1.6.7-1.6 1.6v20.4c0 .9.7 1.6 1.6 1.6h14.1c.9-.1 1.6-.8 1.6-1.6zm-4-20.3l2.4 2.3h-1.8s-.5 0-.5-.6v-1.7zM19.4 49.2c-.8 0-1.4-.6-1.4-1.5V29.1c0-.8.6-1.5 1.4-1.5h10.1v2.7c0 .9.8.9.8.9h2.9v16.5c0 .8-.6 1.5-1.4 1.5H19.4z"/><path fill="#FFF" d="M19.9 34h11.6v.8H19.9zm0 3.2h11.6v.8H19.9zm0 3.1h11.6v.8H19.9zm0 3.1h11.6v.8H19.9zm0-12.5h6.6v.8h-6.6z"/><path fill="#FFF" d="M38.6 35.2h-2.8v1h2.4V39c0 .9.8.9.8.9h2.9v16.5c0 .8-.6 1.5-1.4 1.5H28c-.8 0-1.4-.6-1.4-1.5v-4.7h-1v5.6c0 .9.7 1.6 1.6 1.6h14.1c.9 0 1.6-.7 1.6-1.6V39.4l-4.3-4.2zm.8 4s-.5 0-.5-.6v-1.7l2.4 2.3h-1.9z"/><path fill="#FFF" d="M35.4 42.7h4.3v.8h-4.3zm0 3.1h4.3v.8h-4.3zm0 3.1h4.3v.8h-4.3zm-7.3 3.2h11.6v.8H28.1zm8.4-24.5c1.8 0 3.2 1.4 3.3 3.1H39c-.3 0-.4.2-.3.5l.4.7c.1.3.4.7.5.9l.4.7c.1.2.4.2.5 0l.4-.7c.2-.2.4-.7.5-.9l.4-.7c.2-.2 0-.5-.2-.5h-.7c-.1-2.5-2.1-4.5-4.6-4.5-1.2 0-2.3.5-3.2 1.2l.9.9c.9-.4 1.6-.8 2.5-.7z"/></g></svg>