<svg version="1.0" id="Направляющие" xmlns="http://www.w3.org/2000/svg" x="0" y="0" viewBox="0 0 60 85" xml:space="preserve"><g id="текст_1_"><path id="canvas_background_12_" fill="#08F" d="M0 0h60v85H0z"/></g><g fill="#FFF" id="Слой_5"><path d="M46.6 30.9c0-1.2-.9-2.1-2.1-2.1H31.8v-2.6h-3.2v2.6H16c-1.2 0-2.1.9-2.1 2.1 0 .8.4 1.5 1.1 1.8V51h9.1l-5.3 7.9h4.4l5-7.5v7.5h4.2v-7.5l5 7.5h4.4L36.5 51h9.1V32.7c.6-.4 1-1 1-1.8zm-16.9-3.7h1.1v1.6h-1.1v-1.6zm-7.2 30.6h-1.9l4.6-6.9h1.9l-4.6 6.9zm8.8 0h-2.1V51h2.1v6.8zm8.5 0h-1.9L33.3 51h1.9l4.6 6.8zm4.7-7.9H16V33h28.5v16.9zm0-18H16c-.6 0-1.1-.5-1.1-1.1 0-.6.5-1.1 1.1-1.1h28.6c.6 0 1.1.5 1.1 1.1-.2.7-.6 1.1-1.2 1.1z"/><path d="M18.6 47.3c.9 0 1.6-.7 1.6-1.6 0-.2-.1-.5-.2-.7l3.9-3.9 3.7 3.7 5.3-5.3 4.2 4.2 4.1-4.1c.2.1.4.2.7.2.9 0 1.6-.7 1.6-1.6 0-.9-.7-1.6-1.6-1.6-.9 0-1.6.7-1.6 1.6 0 .2.1.5.2.7l-3.3 3.3L33 38l-5.3 5.3-3.7-3.7-4.6 4.6c-.2-.1-.4-.2-.7-.2-.9 0-1.6.7-1.6 1.6-.1.9.6 1.7 1.5 1.7zm23.2-9.6c.3 0 .5.2.5.5s-.2.5-.5.5-.5-.2-.5-.5c0-.2.2-.5.5-.5zm-23.2 7.4c.3 0 .5.2.5.5s-.2.5-.5.5-.5-.2-.5-.5.2-.5.5-.5z"/></g></svg>